<svg width="86" height="24" viewBox="0 0 86 24" fill="none" xmlns="http://www.w3.org/2000/svg">
<path d="M26.688 23H19.424V22.744C19.424 21.5707 19.8933 20.9413 20.832 20.856L21.728 20.792L20.576 5.272L14.848 19.544C14.08 19.7787 13.3973 19.832 12.8 19.704L6.624 5.88L5.696 20.728L8.288 20.92C8.352 21.048 8.34133 21.336 8.256 21.784C8.064 22.5947 7.59467 23 6.848 23H0.32V22.744C0.32 21.5707 0.789333 20.9413 1.728 20.856L3.008 20.792L4.16 3.352L1.952 3.16C1.888 3.032 1.89867 2.744 1.984 2.296C2.176 1.48533 2.64533 1.08 3.392 1.08H8.864L14.496 13.816L19.424 1.08H25.28C25.6427 1.08 25.9413 1.176 26.176 1.368C26.4107 1.53867 26.56 1.752 26.624 2.008C26.752 2.648 26.784 3.032 26.72 3.16L24.48 3.352L25.792 20.728L28.128 20.92C28.192 21.048 28.1813 21.336 28.096 21.784C27.904 22.5947 27.4347 23 26.688 23ZM36.6288 23H29.4928V22.744C29.4928 21.5707 29.9621 20.9413 30.9008 20.856L31.8928 20.792V9.176L30.6448 9.048C29.7701 8.96267 29.3754 8.30133 29.4608 7.064L35.7968 6.36V20.728L38.0688 20.92C38.1968 22.3067 37.7168 23 36.6288 23ZM35.9568 2.552C35.9568 3.21333 35.7328 3.77867 35.2848 4.248C34.8368 4.696 34.2714 4.92 33.5888 4.92C32.9274 4.92 32.3621 4.696 31.8928 4.248C31.4448 3.77867 31.2208 3.21333 31.2208 2.552C31.2208 1.89067 31.4448 1.336 31.8928 0.887999C32.3621 0.418665 32.9274 0.183998 33.5888 0.183998C34.2501 0.183998 34.8048 0.418665 35.2528 0.887999C35.7221 1.336 35.9568 1.89067 35.9568 2.552ZM52.8955 2.2C53.5142 2.81867 53.8235 3.58667 53.8235 4.504C53.8235 5.42133 53.5462 6.11467 52.9915 6.584C52.4368 7.05333 51.7222 7.224 50.8475 7.096C50.8475 4.38667 49.6635 3.032 47.2955 3.032C46.2502 3.032 45.3968 3.27733 44.7355 3.768C44.0955 4.23733 43.7755 4.888 43.7755 5.72C43.7755 6.36 43.9248 6.84 44.2235 7.16C44.5222 7.45867 44.7462 7.68267 44.8955 7.832C45.0448 7.96 45.3222 8.14133 45.7275 8.376C46.1542 8.58933 46.4528 8.73867 46.6235 8.824C46.8155 8.90933 47.1888 9.08 47.7435 9.336C48.3195 9.57067 48.7035 9.73067 48.8955 9.816C51.0715 10.776 52.5968 11.6933 53.4715 12.568C54.3675 13.4427 54.8155 14.6587 54.8155 16.216C54.8155 18.3707 54.0582 20.12 52.5435 21.464C51.0288 22.808 48.9808 23.48 46.3995 23.48C43.7968 23.48 41.8448 22.8933 40.5435 21.72C39.8395 21.0587 39.4875 20.2907 39.4875 19.416C39.4875 18.52 39.7648 17.816 40.3195 17.304C40.8955 16.792 41.7488 16.536 42.8795 16.536C42.8795 18.0933 43.1995 19.2347 43.8395 19.96C44.5008 20.6853 45.5355 21.048 46.9435 21.048C48.3515 21.048 49.4608 20.728 50.2715 20.088C51.0822 19.4267 51.4875 18.6053 51.4875 17.624C51.4875 16.6427 51.1035 15.8533 50.3355 15.256C49.5675 14.6587 48.5435 14.0827 47.2635 13.528C45.9835 12.9733 45.1408 12.6107 44.7355 12.44C44.3302 12.248 43.7968 11.9493 43.1355 11.544C42.4742 11.1173 41.9942 10.712 41.6955 10.328C40.8635 9.304 40.4475 8.13067 40.4475 6.808C40.4475 4.78133 41.1942 3.24533 42.6875 2.2C44.1808 1.13333 45.9835 0.599998 48.0955 0.599998C50.2075 0.599998 51.8075 1.13333 52.8955 2.2ZM62.406 9.08V17.944C62.406 19.672 62.9607 20.536 64.07 20.536C64.8807 20.536 65.5527 20.4293 66.086 20.216C66.6407 20.0027 67.2273 19.64 67.846 19.128C67.9527 19.128 68.0913 19.2667 68.262 19.544C68.4327 19.8213 68.518 20.12 68.518 20.44C68.518 21.272 67.9313 21.9867 66.758 22.584C65.5847 23.1813 64.4433 23.48 63.334 23.48C62.2247 23.48 61.35 23.32 60.71 23C60.07 22.7013 59.59 22.2533 59.27 21.656C58.758 20.6747 58.502 19.3733 58.502 17.752V9.08H55.846C55.846 7.58667 56.3687 6.84 57.414 6.84H58.502V2.744L62.406 2.328V6.84H68.166C68.2087 7.16 68.1767 7.52267 68.07 7.928C67.878 8.696 67.3873 9.08 66.598 9.08H62.406ZM80.107 10.52C79.5097 9.38933 78.6563 8.824 77.547 8.824C76.4377 8.824 75.5737 9.37867 74.955 10.488C74.3577 11.5973 74.059 13.112 74.059 15.032C74.059 16.9307 74.3577 18.4133 74.955 19.48C75.5737 20.5253 76.4377 21.048 77.547 21.048C78.6563 21.048 79.5097 20.536 80.107 19.512C80.7257 18.4667 81.035 16.9947 81.035 15.096C81.035 13.176 80.7257 11.6507 80.107 10.52ZM69.995 15.192C69.995 12.4613 70.667 10.3067 72.011 8.728C73.3763 7.14933 75.2643 6.36 77.675 6.36C80.0857 6.36 81.9203 7.11733 83.179 8.632C84.459 10.1467 85.099 12.248 85.099 14.936C85.099 17.6027 84.4163 19.6933 83.051 21.208C81.6857 22.7227 79.7763 23.48 77.323 23.48C74.891 23.48 73.0563 22.776 71.819 21.368C70.603 19.96 69.995 17.9013 69.995 15.192Z" fill="black"/>
</svg>
